<svg xmlns="http://www.w3.org/2000/svg" viewBox="0 0 1200 700" role="img" aria-label="Alarm keypad illustration">
  <defs>
    <linearGradient id="bg2" x1="0" y1="0" x2="1" y2="1">
      <stop offset="0" stop-color="#f8f4df"/>
      <stop offset="1" stop-color="#e8e7be"/>
    </linearGradient>
    <linearGradient id="panel" x1="0" y1="0" x2="1" y2="1">
      <stop offset="0" stop-color="#ffffff"/>
      <stop offset="1" stop-color="#ecf0db"/>
    </linearGradient>
  </defs>
  <rect width="1200" height="700" fill="url(#bg2)"/>
  <rect x="270" y="120" width="520" height="460" rx="34" fill="url(#panel)" stroke="#6f9f54" stroke-width="8"/>
  <rect x="334" y="170" width="392" height="84" rx="12" fill="#1f3d2c"/>
  <circle cx="920" cy="220" r="88" fill="#b32025"/>
  <circle cx="920" cy="220" r="56" fill="#e8e7be"/>
  <circle cx="920" cy="220" r="26" fill="#b32025"/>
  <g fill="#6f9f54">
    <rect x="340" y="288" width="108" height="72" rx="10"/>
    <rect x="476" y="288" width="108" height="72" rx="10"/>
    <rect x="612" y="288" width="108" height="72" rx="10"/>
    <rect x="340" y="378" width="108" height="72" rx="10"/>
    <rect x="476" y="378" width="108" height="72" rx="10"/>
    <rect x="612" y="378" width="108" height="72" rx="10"/>
    <rect x="340" y="468" width="244" height="72" rx="10"/>
    <rect x="612" y="468" width="108" height="72" rx="10"/>
  </g>
</svg>
